:FULLY-SPECIFIED
:DEGREES
999
root 3.92876 16.4073 -1.87786 -47.2828 -86.403 63.3222
lowerback -7.35695 -1.99896 -1.43045
upperback -4.78926 -2.72264 0.523504
thorax -0.732478 -1.38964 1.16048
lowerneck -14.8717 -0.491385 1.32205
upperneck 20.1788 -1.202 -0.00364318
head 8.75322 -0.540712 -0.375311
rclavicle 8.74653e-015 1.03368e-014
rhumerus -42.5253 -7.70224 -77.7418
rradius 32.2531
rwrist 18.3672
rhand -23.3795 -6.04808
rfingers 7.12502
rthumb 3.07659 -36.0056
lclavicle 8.74653e-015 1.03368e-014
lhumerus -31.4844 -13.531 88.3506
lradius 40.5127
lwrist -5.93837
lhand -36.5758 -1.958
lfingers 7.12502
lthumb -9.66536 27.8003
rfemur -45.1684 8.78394 12.6712
rtibia 27.7906
rfoot -8.22972 -13.2025
rtoes -16.6738
lfemur -16.4857 -17.402 -29.2051
ltibia 18.9485
lfoot -13.978 21.0946
ltoes -7.90193
1000
root 3.93133 16.4139 -1.88033 -46.6835 -86.1783 62.8373
lowerback -7.46196 -2.06515 -1.5508
upperback -4.78945 -2.80281 0.478584
thorax -0.669317 -1.42877 1.17182
lowerneck -14.832 -0.505717 1.28309
upperneck 20.0299 -1.21964 0.0573597
head 8.69575 -0.544958 -0.349102
rclavicle -1.59028e-015 1.39149e-014
rhumerus -42.7129 -7.82322 -77.6008
rradius 32.2747
rwrist 18.1962
rhand -23.3176 -6.15448
rfingers 7.12502
rthumb 3.13643 -36.1112
lclavicle -1.59028e-015 1.39149e-014
lhumerus -31.1871 -13.9258 88.3476
lradius 40.8035
lwrist -6.02471
lhand -36.5351 -2.03193
lfingers 7.12502
lthumb -9.62611 27.7281
rfemur -44.7186 10.2148 11.3165
rtibia 24.4292
rfoot -7.84299 -14.8413
rtoes -16.4056
lfemur -15.5006 -17.4405 -29.4604
ltibia 17.9149
lfoot -13.8337 20.9835
ltoes -8.27451
1001
root 3.92926 16.4174 -1.88344 -46.1167 -86.1024 62.3367
lowerback -7.5518 -2.09898 -1.58704
upperback -4.78692 -2.84471 0.505901
thorax -0.61294 -1.44941 1.21343
lowerneck -14.837 -0.519153 1.23513
upperneck 19.9711 -1.219 0.0362916
head 8.67667 -0.55004 -0.347772
rclavicle -4.77083e-015 -1.11319e-014
rhumerus -42.8697 -7.82579 -77.4551
rradius 32.2804
rwrist 17.9487
rhand -23.2545 -6.33356
rfingers 7.12502
rthumb 3.19734 -36.2893
lclavicle -4.77083e-015 -1.11319e-014
lhumerus -30.9759 -14.3366 88.4728
lradius 41.1314
lwrist -5.76924
lhand -36.4163 -2.1487
lfingers 7.12502
lthumb -9.5115 27.6166
rfemur -44.236 11.814 10.014
rtibia 21.2972
rfoot -7.42806 -16.9052
rtoes -16.4728
lfemur -14.4598 -17.381 -29.6185
ltibia 16.9193
lfoot -13.7927 20.9277
ltoes -8.32092
1002
root 3.92811 16.4185 -1.88682 -45.6152 -86.0103 61.8709
lowerback -7.60291 -2.12184 -1.58492
upperback -4.77623 -2.87417 0.491616
thorax -0.573588 -1.46476 1.19305
lowerneck -14.9141 -0.515694 1.23391
upperneck 19.9891 -1.20875 0.0123373
head 8.69675 -0.547114 -0.354874
rclavicle -3.10104e-014 -1.59028e-015
rhumerus -43.0201 -7.85042 -77.3507
rradius 32.1743
rwrist 18.1251
rhand -23.306 -6.32039
rfingers 7.12502
rthumb 3.1476 -36.2769
lclavicle -3.10104e-014 -1.59028e-015
lhumerus -30.7511 -14.6917 88.5236
lradius 41.3969
lwrist -5.70715
lhand -36.4212 -2.07346
lfingers 7.12502
lthumb -9.51626 27.6917
rfemur -43.8055 13.5948 8.52397
rtibia 18.4651
rfoot -7.19146 -19.5274
rtoes -15.5818
lfemur -13.418 -17.2896 -29.7968
ltibia 15.9511
lfoot -13.6327 20.7778
ltoes -8.90272
1003
root 3.92686 16.4213 -1.89181 -44.7578 -85.9011 60.9946
lowerback -7.59453 -2.16118 -1.5886
upperback -4.73422 -2.92407 0.487531
thorax -0.533131 -1.48941 1.18646
lowerneck -15.0201 -0.499035 1.20746
upperneck 19.9828 -1.17665 0.00615092
head 8.71424 -0.533456 -0.349135
rclavicle -7.15625e-015 2.38542e-015
rhumerus -43.0803 -7.82793 -77.3096
rradius 32.1325
rwrist 17.7962
rhand -23.2647 -6.35712
rfingers 7.12502
rthumb 3.18746 -36.313
lclavicle -7.15625e-015 2.38542e-015
lhumerus -30.4568 -14.872 88.5041
lradius 41.605
lwrist -5.9007
lhand -36.214 -2.08887
lfingers 7.12502
lthumb -9.31629 27.6853
rfemur -43.3997 15.4704 6.97729
rtibia 15.9551
rfoot -7.09719 -22.6122
rtoes -14.0693
lfemur -12.3538 -17.1869 -29.9847
ltibia 15.0776
lfoot -13.6968 20.7309
ltoes -8.97657
1004
root 3.92413 16.4188 -1.89674 -45.1481 -85.7912 61.4856
lowerback -7.72365 -2.16882 -1.62324
upperback -4.74993 -2.93168 0.446337
thorax -0.478641 -1.49424 1.15794
lowerneck -15.0175 -0.498956 1.20366
upperneck 19.991 -1.17308 -0.00626693
head 8.71647 -0.533429 -0.352319
rclavicle 1.19271e-014 -1.78906e-014
rhumerus -43.1999 -7.88492 -77.2125
rradius 31.986
rwrist 18.0396
rhand -23.3205 -6.23231
rfingers 7.12502
rthumb 3.1336 -36.189
lclavicle 1.19271e-014 -1.78906e-014
lhumerus -30.2593 -15.1118 88.5275
lradius 41.7524
lwrist -5.99225
lhand -36.24 -2.13917
lfingers 7.12502
lthumb -9.34143 27.6339
rfemur -43.2372 17.2586 5.3997
rtibia 13.8546
rfoot -7.31198 -25.8589
rtoes -12.3033
lfemur -11.4774 -17.0553 -30.1962
ltibia 14.3154
lfoot -13.529 20.6158
ltoes -9.74575
1005
root 3.92192 16.4151 -1.90539 -45.9287 -85.6763 62.1961
lowerback -7.6201 -2.18848 -1.74015
upperback -4.73285 -2.95066 0.428756
thorax -0.512823 -1.5007 1.20763
lowerneck -15.0077 -0.475197 1.2187
upperneck 19.9628 -1.12851 -0.068116
head 8.70479 -0.517724 -0.370225
rclavicle -1.51076e-014 6.75868e-015
rhumerus -43.3021 -7.81686 -77.1758
rradius 31.9434
rwrist 18.147
rhand -23.3271 -6.30119
rfingers 7.12502
rthumb 3.12726 -36.258
lclavicle -1.51076e-014 6.75868e-015
lhumerus -30.1238 -15.3358 88.5874
lradius 41.9909
lwrist -5.86996
lhand -36.2869 -2.03545
lfingers 7.12502
lthumb -9.38661 27.7355
rfemur -42.8659 18.59 4.30967
rtibia 12.1223
rfoot -7.55875 -28.7121
rtoes -11.217
lfemur -10.5312 -16.977 -30.4499
ltibia 13.7739
lfoot -13.4804 20.5534
ltoes -10.3501
1006
root 3.92096 16.4109 -1.91338 -45.9482 -85.589 62.2695
lowerback -7.64225 -2.20259 -1.75029
upperback -4.73408 -2.96859 0.406196
thorax -0.502014 -1.50997 1.18788
lowerneck -15.0117 -0.447892 1.19298
upperneck 19.9021 -1.08319 -0.0604176
head 8.68535 -0.496985 -0.357603
rclavicle 1.51076e-014 9.93923e-015
rhumerus -43.295 -7.84167 -77.1229
rradius 31.7994
rwrist 18.2659
rhand -23.2234 -6.22687
rfingers 7.12502
rthumb 3.22741 -36.1822
lclavicle 1.51076e-014 9.93923e-015
lhumerus -29.886 -15.3181 88.5704
lradius 42.0333
lwrist -5.98705
lhand -36.2422 -2.22542
lfingers 7.12502
lthumb -9.34346 27.5475
rfemur -42.6288 19.4296 3.64669
rtibia 10.8831
rfoot -7.77487 -30.9161
rtoes -10.6898
lfemur -9.82777 -16.7792 -30.6027
ltibia 13.3915
lfoot -13.4175 20.3224
ltoes -11.0207
1007
root 3.91924 16.4038 -1.92148 -47.36 -85.6622 63.8296
lowerback -7.77663 -2.14814 -1.68132
upperback -4.77432 -2.90135 0.391665
thorax -0.475888 -1.47924 1.13494
lowerneck -15.0445 -0.407558 1.22634
upperneck 19.9519 -1.02757 -0.103373
head 8.70823 -0.472823 -0.371542
rclavicle -1.59028e-015 6.75868e-015
rhumerus -43.3296 -7.86732 -77.0771
rradius 31.6912
rwrist 18.3639
rhand -23.2539 -6.15897
rfingers 7.12502
rthumb 3.19788 -36.1147
lclavicle -1.59028e-015 6.75868e-015
lhumerus -29.8307 -15.3367 88.627
lradius 42.1922
lwrist -6.05896
lhand -36.4233 -2.01354
lfingers 7.12502
lthumb -9.51828 27.7515
rfemur -42.5209 19.6872 3.61072
rtibia 10.1866
rfoot -7.66547 -31.9418
rtoes -10.3422
lfemur -9.32132 -16.6072 -30.6458
ltibia 13.1778
lfoot -13.5362 20.21
ltoes -11.6797
1008
root 3.91226 16.3981 -1.93057 -47.9484 -85.6164 64.4667
lowerback -7.80404 -2.13941 -1.67454
upperback -4.8018 -2.89135 0.376158
thorax -0.490695 -1.47496 1.11559
lowerneck -15.0707 -0.395276 1.24179
upperneck 19.9832 -0.995728 -0.190217
head 8.72321 -0.465823 -0.399997
rclavicle -3.18055e-015 1.15295e-014
rhumerus -43.3274 -7.87474 -77.0113
rradius 31.5447
rwrist 18.6385
rhand -23.2089 -6.2784
rfingers 7.12502
rthumb 3.24135 -36.2335
lclavicle -3.18055e-015 1.15295e-014
lhumerus -29.7635 -15.2377 88.6997
lradius 42.2219
lwrist -6.03544
lhand -36.4666 -2.18266
lfingers 7.12502
lthumb -9.56006 27.5805
rfemur -42.2339 19.4962 3.93754
rtibia 10.0019
rfoot -7.44147 -32.0167
rtoes -10.2016
lfemur -8.76054 -16.4968 -30.7576
ltibia 13.1343
lfoot -13.5968 20.0316
ltoes -12.4197
